<svg xmlns="http://www.w3.org/2000/svg" xmlns:xlink="http://www.w3.org/1999/xlink" width="300" zoomAndPan="magnify" viewBox="0 0 375 374.999991" height="300" preserveAspectRatio="xMidYMid meet" version="1.0"><defs><g/></defs><g fill="#292929" fill-opacity="1"><g transform="translate(81.595107, 199.161433)"><g><path d="M 14.890625 0 L -1.3125 -38.640625 L 8.625 -38.640625 L 18.359375 -13.25 L 28.109375 -38.640625 L 38.03125 -38.640625 L 21.828125 0 Z M 14.890625 0 "/></g></g></g><g fill="#292929" fill-opacity="1"><g transform="translate(115.50665, 199.161433)"><g><path d="M 3.609375 -37.421875 C 4.578125 -38.390625 5.734375 -38.875 7.078125 -38.875 C 8.421875 -38.875 9.570312 -38.390625 10.53125 -37.421875 C 11.5 -36.453125 11.984375 -35.296875 11.984375 -33.953125 C 11.984375 -32.617188 11.5 -31.46875 10.53125 -30.5 C 9.570312 -29.53125 8.421875 -29.046875 7.078125 -29.046875 C 5.734375 -29.046875 4.578125 -29.53125 3.609375 -30.5 C 2.640625 -31.46875 2.15625 -32.617188 2.15625 -33.953125 C 2.15625 -35.296875 2.640625 -36.453125 3.609375 -37.421875 Z M 2.8125 -24.03125 L 2.8125 0 L 11.109375 0 L 11.109375 -24.03125 Z M 2.8125 -24.03125 "/></g></g></g><g fill="#292929" fill-opacity="1"><g transform="translate(126.841415, 199.161433)"><g><path d="M 15.59375 -17.9375 C 14.03125 -17.9375 12.6875 -17.359375 11.5625 -16.203125 C 10.445312 -15.046875 9.890625 -13.65625 9.890625 -12.03125 C 9.890625 -10.382812 10.445312 -8.984375 11.5625 -7.828125 C 12.6875 -6.671875 14.03125 -6.09375 15.59375 -6.09375 C 16.34375 -6.09375 17.050781 -6.1875 17.71875 -6.375 C 18.394531 -6.5625 18.890625 -6.75 19.203125 -6.9375 L 19.625 -7.21875 L 22.4375 -1.453125 C 22.21875 -1.296875 21.910156 -1.097656 21.515625 -0.859375 C 21.128906 -0.628906 20.238281 -0.3125 18.84375 0.09375 C 17.457031 0.5 15.96875 0.703125 14.375 0.703125 C 10.851562 0.703125 7.753906 -0.535156 5.078125 -3.015625 C 2.410156 -5.503906 1.078125 -8.476562 1.078125 -11.9375 C 1.078125 -15.4375 2.410156 -18.441406 5.078125 -20.953125 C 7.753906 -23.472656 10.851562 -24.734375 14.375 -24.734375 C 15.96875 -24.734375 17.4375 -24.546875 18.78125 -24.171875 C 20.125 -23.796875 21.078125 -23.421875 21.640625 -23.046875 L 22.4375 -22.484375 L 19.625 -16.8125 C 18.59375 -17.5625 17.25 -17.9375 15.59375 -17.9375 Z M 15.59375 -17.9375 "/></g></g></g><g fill="#292929" fill-opacity="1"><g transform="translate(147.028906, 199.161433)"><g><path d="M 15.59375 -17.9375 C 14.03125 -17.9375 12.6875 -17.359375 11.5625 -16.203125 C 10.445312 -15.046875 9.890625 -13.65625 9.890625 -12.03125 C 9.890625 -10.382812 10.445312 -8.984375 11.5625 -7.828125 C 12.6875 -6.671875 14.03125 -6.09375 15.59375 -6.09375 C 16.34375 -6.09375 17.050781 -6.1875 17.71875 -6.375 C 18.394531 -6.5625 18.890625 -6.75 19.203125 -6.9375 L 19.625 -7.21875 L 22.4375 -1.453125 C 22.21875 -1.296875 21.910156 -1.097656 21.515625 -0.859375 C 21.128906 -0.628906 20.238281 -0.3125 18.84375 0.09375 C 17.457031 0.5 15.96875 0.703125 14.375 0.703125 C 10.851562 0.703125 7.753906 -0.535156 5.078125 -3.015625 C 2.410156 -5.503906 1.078125 -8.476562 1.078125 -11.9375 C 1.078125 -15.4375 2.410156 -18.441406 5.078125 -20.953125 C 7.753906 -23.472656 10.851562 -24.734375 14.375 -24.734375 C 15.96875 -24.734375 17.4375 -24.546875 18.78125 -24.171875 C 20.125 -23.796875 21.078125 -23.421875 21.640625 -23.046875 L 22.4375 -22.484375 L 19.625 -16.8125 C 18.59375 -17.5625 17.25 -17.9375 15.59375 -17.9375 Z M 15.59375 -17.9375 "/></g></g></g><g fill="#292929" fill-opacity="1"><g transform="translate(167.216397, 199.161433)"><g><path d="M 21.03125 -24.03125 L 30.59375 -24.03125 L 11.71875 12.171875 L 2.15625 12.171875 L 10.453125 -3.75 L -0.9375 -24.03125 L 8.625 -24.03125 L 15.3125 -11.71875 Z M 21.03125 -24.03125 "/></g></g></g><g fill="#292929" fill-opacity="1"><g transform="translate(194.055136, 199.161433)"><g><path d="M 22.4375 -38.640625 L 38.03125 0 L 28.578125 0 L 25.71875 -7.734375 L 11.015625 -7.734375 L 8.15625 0 L -1.3125 0 L 14.28125 -38.640625 Z M 22.71875 -15.453125 L 18.40625 -26.703125 L 18.3125 -26.703125 L 14 -15.453125 Z M 22.71875 -15.453125 "/></g></g></g><g fill="#292929" fill-opacity="1"><g transform="translate(227.966678, 199.161433)"><g><path d="M 15.59375 -17.9375 C 14.03125 -17.9375 12.6875 -17.359375 11.5625 -16.203125 C 10.445312 -15.046875 9.890625 -13.65625 9.890625 -12.03125 C 9.890625 -10.382812 10.445312 -8.984375 11.5625 -7.828125 C 12.6875 -6.671875 14.03125 -6.09375 15.59375 -6.09375 C 16.34375 -6.09375 17.050781 -6.1875 17.71875 -6.375 C 18.394531 -6.5625 18.890625 -6.75 19.203125 -6.9375 L 19.625 -7.21875 L 22.4375 -1.453125 C 22.21875 -1.296875 21.910156 -1.097656 21.515625 -0.859375 C 21.128906 -0.628906 20.238281 -0.3125 18.84375 0.09375 C 17.457031 0.5 15.96875 0.703125 14.375 0.703125 C 10.851562 0.703125 7.753906 -0.535156 5.078125 -3.015625 C 2.410156 -5.503906 1.078125 -8.476562 1.078125 -11.9375 C 1.078125 -15.4375 2.410156 -18.441406 5.078125 -20.953125 C 7.753906 -23.472656 10.851562 -24.734375 14.375 -24.734375 C 15.96875 -24.734375 17.4375 -24.546875 18.78125 -24.171875 C 20.125 -23.796875 21.078125 -23.421875 21.640625 -23.046875 L 22.4375 -22.484375 L 19.625 -16.8125 C 18.59375 -17.5625 17.25 -17.9375 15.59375 -17.9375 Z M 15.59375 -17.9375 "/></g></g></g><g fill="#292929" fill-opacity="1"><g transform="translate(248.154169, 199.161433)"><g><path d="M 27.125 -10.875 L 9.703125 -10.875 C 9.703125 -9.1875 10.242188 -7.9375 11.328125 -7.125 C 12.421875 -6.3125 13.609375 -5.90625 14.890625 -5.90625 C 16.234375 -5.90625 17.296875 -6.082031 18.078125 -6.4375 C 18.859375 -6.800781 19.75 -7.515625 20.75 -8.578125 L 26.75 -5.578125 C 24.25 -1.390625 20.09375 0.703125 14.28125 0.703125 C 10.664062 0.703125 7.5625 -0.535156 4.96875 -3.015625 C 2.375 -5.503906 1.078125 -8.492188 1.078125 -11.984375 C 1.078125 -15.484375 2.375 -18.484375 4.96875 -20.984375 C 7.5625 -23.484375 10.664062 -24.734375 14.28125 -24.734375 C 18.09375 -24.734375 21.191406 -23.628906 23.578125 -21.421875 C 25.972656 -19.222656 27.171875 -16.078125 27.171875 -11.984375 C 27.171875 -11.429688 27.15625 -11.0625 27.125 -10.875 Z M 9.9375 -15.453125 L 19.0625 -15.453125 C 18.875 -16.703125 18.378906 -17.660156 17.578125 -18.328125 C 16.785156 -19.003906 15.765625 -19.34375 14.515625 -19.34375 C 13.140625 -19.34375 12.046875 -18.984375 11.234375 -18.265625 C 10.429688 -17.546875 10 -16.609375 9.9375 -15.453125 Z M 9.9375 -15.453125 "/></g></g></g><path stroke-linecap="butt" transform="matrix(0.527929, 0.527929, -0.527929, 0.527929, 36.025172, 173.288192)" fill="none" stroke-linejoin="miter" d="M 0.00288158 5.000627 L 84.435154 5.000627 " stroke="#292929" stroke-width="10" stroke-opacity="1" stroke-miterlimit="4"/><path stroke-linecap="butt" transform="matrix(-0.527929, 0.527929, -0.527929, -0.527929, 81.138333, 138.728194)" fill="none" stroke-linejoin="miter" d="M -0.0000166389 4.997534 L 82.464069 4.997534 " stroke="#292929" stroke-width="10" stroke-opacity="1" stroke-miterlimit="4"/><path stroke-linecap="butt" transform="matrix(-0.526893, -0.526893, 0.526893, -0.526893, 317.347865, 190.126423)" fill="none" stroke-linejoin="miter" d="M 0.00154844 4.998012 L 84.432912 5.001719 " stroke="#292929" stroke-width="10" stroke-opacity="1" stroke-miterlimit="4"/><path stroke-linecap="butt" transform="matrix(0.526893, -0.526893, 0.526893, 0.526893, 272.32317, 224.618642)" fill="none" stroke-linejoin="miter" d="M -0.00133117 5.000182 L 82.461685 5.000182 " stroke="#292929" stroke-width="10" stroke-opacity="1" stroke-miterlimit="4"/></svg>